<svg width="16" height="16" viewBox="0 0 16 16" fill="none" xmlns="http://www.w3.org/2000/svg">
<path d="M9.71274 10.7344C9.81582 10.8385 9.87365 10.9791 9.87365 11.1256C9.87365 11.2721 9.81582 11.4127 9.71274 11.5168C9.66212 11.5682 9.60179 11.609 9.53525 11.6369C9.4687 11.6647 9.39728 11.6791 9.32514 11.6791C9.253 11.6791 9.18158 11.6647 9.11504 11.6369C9.0485 11.609 8.98816 11.5682 8.93754 11.5168L5.87354 8.39037C5.7706 8.28603 5.71289 8.14535 5.71289 7.99877C5.71289 7.8522 5.7706 7.71152 5.87354 7.60717L8.93754 4.48077C8.98816 4.42937 9.0485 4.38855 9.11504 4.36069C9.18158 4.33283 9.253 4.31848 9.32514 4.31848C9.39728 4.31848 9.4687 4.33283 9.53525 4.36069C9.60179 4.38855 9.66212 4.42937 9.71274 4.48077C9.81582 4.58488 9.87365 4.72547 9.87365 4.87197C9.87365 5.01848 9.81582 5.15906 9.71274 5.26317L7.19994 7.99997L9.71274 10.7344Z" fill="black"/>
</svg>
