<svg width="20" height="19" viewBox="0 0 20 19" fill="none" xmlns="http://www.w3.org/2000/svg">
<path d="M2 5.99997H14L12.788 2.96997C12.6867 2.71685 12.6381 2.44568 12.6454 2.17312C12.6527 1.90056 12.7157 1.63237 12.8304 1.38503C12.9451 1.13769 13.1092 0.916413 13.3126 0.734805C13.5159 0.553198 13.7543 0.415091 14.013 0.328971L14.353 0.215971C14.5438 0.15224 14.7494 0.147643 14.9428 0.202783C15.1362 0.257923 15.3085 0.370227 15.437 0.524971L19.769 5.72197C19.9184 5.90179 20.0001 6.12821 20 6.36197V17C20 17.5304 19.7893 18.0391 19.4142 18.4142C19.0391 18.7893 18.5304 19 18 19H10.79C10.298 18.9998 9.82326 18.8182 9.45668 18.49C9.0901 18.1618 8.85737 17.71 8.803 17.221L8 9.99997H2C1.46957 9.99997 0.960859 9.78926 0.585787 9.41418C0.210714 9.03911 0 8.5304 0 7.99997C0 7.46954 0.210714 6.96083 0.585787 6.58576C0.960859 6.21068 1.46957 5.99997 2 5.99997Z" fill="black"/>
</svg>
