<svg width="24" height="24" viewBox="0 0 24 24" fill="none" xmlns="http://www.w3.org/2000/svg">
<path d="M2 2.78849V21.2104C2.00012 21.2503 2.01204 21.2894 2.03427 21.3226C2.05649 21.3558 2.08803 21.3817 2.12492 21.3971C2.16182 21.4125 2.20243 21.4166 2.24166 21.409C2.2809 21.4014 2.31701 21.3823 2.34547 21.3543L11.9375 11.9999L2.34547 2.64458C2.31701 2.61652 2.2809 2.59749 2.24166 2.58987C2.20243 2.58225 2.16182 2.58638 2.12492 2.60175C2.08803 2.61712 2.05649 2.64304 2.03427 2.67626C2.01204 2.70948 2.00012 2.74852 2 2.78849ZM15.9594 8.15615L3.93219 1.5299L3.92469 1.52568C3.7175 1.41318 3.52062 1.69349 3.69031 1.85661L13.1183 10.8716L15.9594 8.15615ZM3.69125 22.1432C3.52062 22.3063 3.7175 22.5866 3.92562 22.4741L3.93312 22.4699L15.9594 15.8436L13.1183 13.1272L3.69125 22.1432ZM20.8147 10.828L17.4561 8.97833L14.2981 11.9999L17.4561 15.0201L20.8147 13.1718C21.7283 12.6669 21.7283 11.3329 20.8147 10.828Z" fill="white"/>
</svg>
