<svg width="24" height="24" viewBox="0 0 24 24" fill="none" xmlns="http://www.w3.org/2000/svg">
<path fill-rule="evenodd" clip-rule="evenodd" d="M9.68317 9.2721H13.0258V10.9371C13.5073 9.9795 14.7421 9.1191 16.597 9.1191C20.1529 9.1191 20.9971 11.0253 20.9971 14.5227V21H17.3971V15.3192C17.3971 13.3275 16.9156 12.2043 15.6898 12.2043C13.9897 12.2043 13.2832 13.4148 13.2832 15.3183V21H9.68317V9.2721V9.2721ZM3.51007 20.847H7.11007V9.1191H3.51007V20.847V20.847ZM7.62577 5.295C7.6259 5.59675 7.56606 5.89551 7.44972 6.17393C7.33338 6.45235 7.16286 6.70486 6.94807 6.9168C6.51283 7.34936 5.9237 7.59149 5.31007 7.59C4.69752 7.58959 4.10975 7.34808 3.67387 6.9177C3.45986 6.70504 3.28992 6.45224 3.17378 6.17379C3.05764 5.89534 2.99759 5.5967 2.99707 5.295C2.99707 4.6857 3.24007 4.1025 3.67477 3.6723C4.11027 3.24134 4.69829 2.99973 5.31097 3C5.92477 3 6.51337 3.2421 6.94807 3.6723C7.38187 4.1025 7.62577 4.6857 7.62577 5.295Z" fill="white" fill-opacity="0.52"/>
</svg>
