<svg width="68" height="51" viewBox="0 0 68 51" xmlns="http://www.w3.org/2000/svg">
<path d="M67.1672 13.1983L67.0838 12.6383L66.9972 12.6583C66.4049 9.88838 65.0404 7.34281 63.0616 5.31609C61.0829 3.28937 58.5707 1.86434 55.8158 1.20587C53.0609 0.547398 50.1759 0.68241 47.4945 1.59528C44.8132 2.50815 42.4451 4.16157 40.6642 6.36423C38.8834 8.56689 37.7626 11.2288 37.4316 14.0418C37.1005 16.8549 37.5728 19.7043 38.7936 22.2602C40.0145 24.816 41.934 26.974 44.3302 28.4844C46.7264 29.9948 49.5013 30.7959 52.3338 30.7949C53.0772 30.7949 53.7905 30.6816 54.5005 30.5783C54.2705 31.3516 54.0338 32.1383 53.6538 32.8449C53.2738 33.8716 52.6805 34.7616 52.0905 35.6583C51.5972 36.6283 50.7272 37.2849 50.0872 38.1149C49.4172 38.9216 48.5038 39.4583 47.7805 40.1283C47.0705 40.8283 46.1405 41.1783 45.4005 41.6716C44.6272 42.1149 43.9538 42.6049 43.2338 42.8383L41.4372 43.5783L39.8572 44.2349L41.4705 50.6983L43.4605 50.2183C44.0972 50.0583 44.8738 49.8716 45.7572 49.6483C46.6605 49.4816 47.6238 49.0249 48.6972 48.6083C49.7538 48.1316 50.9838 47.8149 52.1238 47.0516C53.2705 46.3249 54.5938 45.7183 55.7605 44.7449C56.8905 43.7416 58.2538 42.8716 59.2605 41.5983C60.3605 40.4049 61.4472 39.1516 62.2905 37.7249C63.2672 36.3649 63.9305 34.8716 64.6305 33.3949C65.2638 31.9183 65.7738 30.4083 66.1905 28.9416C66.9805 26.0016 67.3338 23.2083 67.4705 20.8183C67.5838 18.4249 67.5172 16.4349 67.3772 14.9949C67.3303 14.3936 67.2603 13.7942 67.1672 13.1983ZM30.5005 13.1983L30.4172 12.6383L30.3305 12.6583C29.7382 9.88838 28.3737 7.34281 26.395 5.31609C24.4162 3.28937 21.9041 1.86434 19.1492 1.20587C16.3943 0.547398 13.5092 0.68241 10.8278 1.59528C8.14648 2.50815 5.77839 4.16157 3.99756 6.36423C2.21673 8.56689 1.09595 11.2288 0.764913 14.0418C0.433873 16.8549 0.906099 19.7043 2.12695 22.2602C3.3478 24.816 5.26738 26.974 7.66358 28.4844C10.0598 29.9948 12.8347 30.7959 15.6672 30.7949C16.4105 30.7949 17.1238 30.6816 17.8338 30.5783C17.6038 31.3516 17.3672 32.1383 16.9872 32.8449C16.6072 33.8716 16.0138 34.7616 15.4238 35.6583C14.9305 36.6283 14.0605 37.2849 13.4205 38.1149C12.7505 38.9216 11.8372 39.4583 11.1138 40.1283C10.4038 40.8283 9.47383 41.1783 8.73383 41.6716C7.9605 42.1149 7.28716 42.6049 6.56716 42.8383L4.7705 43.5783C3.76716 43.9883 3.19383 44.2283 3.19383 44.2283L4.80716 50.6916L6.79716 50.2116C7.43383 50.0516 8.2105 49.8649 9.09383 49.6416C9.99716 49.4749 10.9605 49.0182 12.0338 48.6016C13.0905 48.1249 14.3205 47.8083 15.4605 47.0449C16.6072 46.3183 17.9305 45.7116 19.0972 44.7383C20.2272 43.7349 21.5905 42.8649 22.5972 41.5916C23.6972 40.3983 24.7838 39.1449 25.6272 37.7183C26.6038 36.3583 27.2672 34.8649 27.9672 33.3883C28.6005 31.9116 29.1105 30.4016 29.5272 28.9349C30.3172 25.9949 30.6705 23.2016 30.8072 20.8116C30.9205 18.4183 30.8538 16.4283 30.7138 14.9883C30.6641 14.3892 30.5929 13.7922 30.5005 13.1983Z" fill="#141B23"/>
</svg>
